<?xml version="1.0" standalone="no"?>
<!DOCTYPE svg PUBLIC "-//W3C//DTD SVG 20010904//EN"
 "http://www.w3.org/TR/2001/REC-SVG-20010904/DTD/svg10.dtd">
<svg version="1.0" xmlns="http://www.w3.org/2000/svg"
 width="2000.000000pt" height="2000.000000pt" viewBox="0 0 2000.000000 2000.000000"
 preserveAspectRatio="xMidYMid meet">
<metadata>
Created by potrace 1.14, written by Peter Selinger 2001-2017
</metadata>
<g transform="translate(0.000000,2000.000000) scale(0.100000,-0.100000)"
fill="#000000" stroke="none">
<path d="M0 10000 l0 -10000 10000 0 10000 0 0 10000 0 10000 -10000 0 -10000
0 0 -10000z m10210 7058 c421 -245 806 -429 1355 -648 237 -94 296 -121 289
-131 -7 -12 -106 26 -463 175 -456 191 -740 326 -1019 485 -138 80 -449 284
-502 331 -19 17 17 -5 80 -49 63 -43 180 -117 260 -163z m100 -189 c463 -367
886 -642 1377 -894 84 -44 151 -80 149 -82 -11 -11 -376 166 -585 284 -142 81
-381 237 -561 369 -276 201 -733 577 -810 668 -19 22 48 -30 150 -115 102 -85
228 -189 280 -230z m-492 144 c-36 -82 -74 -148 -232 -393 -253 -395 -534
-722 -816 -949 -120 -97 -109 -83 125 159 353 364 633 713 790 985 74 129 145
245 150 245 2 0 -5 -21 -17 -47z m-113 -60 c-258 -345 -487 -559 -856 -801
-158 -103 -300 -177 -361 -188 -31 -6 -32 -5 -13 8 11 8 52 32 90 53 178 97
390 232 515 329 205 158 452 402 593 584 44 57 82 101 85 98 2 -3 -21 -40 -53
-83z m259 44 c-4 -7 -4 -9 1 -5 4 4 74 -56 154 -135 455 -442 660 -596 1351
-1014 891 -538 1500 -928 1500 -961 0 -8 -5 -10 -12 -6 -7 5 -49 31 -93 59
-44 29 -181 111 -304 184 -123 73 -339 208 -480 300 -141 92 -328 212 -416
265 -88 54 -275 168 -415 253 -468 285 -657 432 -1027 797 -106 104 -193 186
-193 182 0 -9 98 -139 201 -266 95 -118 323 -342 449 -441 108 -86 283 -204
447 -302 61 -37 180 -118 265 -179 84 -61 202 -142 261 -180 134 -85 319 -207
332 -220 23 -23 -87 39 -180 102 -55 36 -149 94 -210 127 -60 33 -199 123
-307 199 -108 76 -258 178 -332 226 -194 126 -370 269 -536 437 -164 165 -262
283 -375 451 l-78 115 7 -120 c22 -407 -82 -793 -276 -1022 -38 -46 -71 -83
-74 -83 -6 0 -13 -12 75 132 136 221 212 444 254 738 23 162 -6 288 -33 142
-20 -106 -76 -284 -119 -374 -52 -109 -159 -269 -264 -393 -79 -94 -302 -313
-497 -487 -218 -195 -616 -491 -750 -558 -63 -31 -49 -20 149 120 394 279 894
717 1074 940 218 270 371 600 409 882 7 47 16 84 20 82 13 -8 9 21 -4 35 -11
11 -9 11 10 2 13 -7 20 -17 16 -24z m-27 -296 c-22 -303 -330 -795 -723 -1155
-140 -128 -307 -264 -770 -623 -198 -154 -462 -363 -585 -464 -186 -154 -324
-262 -409 -323 -8 -6 -6 0 5 13 18 20 405 344 456 380 10 7 19 17 19 22 0 17
-342 -250 -521 -407 -280 -246 -645 -653 -754 -841 -11 -18 -25 -33 -33 -33
-10 0 -7 10 9 38 115 189 307 430 498 622 222 223 585 517 1001 810 279 196
882 669 1040 815 191 177 383 398 504 580 128 193 240 455 253 590 9 97 17 78
10 -24z m-1328 -907 c-49 -51 -293 -264 -509 -444 -223 -185 -655 -559 -798
-688 -57 -52 -105 -92 -107 -90 -3 2 61 70 140 150 157 158 303 285 757 656
161 132 349 288 418 345 69 58 127 106 129 106 3 1 -11 -15 -30 -35z m4018
-303 c160 -123 173 -135 173 -164 0 -14 -24 3 -91 64 -90 82 -154 139 -234
208 -63 54 -9 15 152 -108z m-782 -121 c167 -99 706 -468 813 -556 29 -24 40
-108 51 -377 7 -190 0 -621 -14 -774 -6 -63 -9 -73 -26 -73 -14 0 -19 7 -19
25 0 43 -29 99 -63 122 -17 12 -57 28 -87 34 -57 13 -342 18 -510 9 -85 -4
-95 -3 -98 13 -3 15 5 17 65 17 71 0 182 30 202 54 7 9 -6 7 -42 -5 -51 -18
-178 -25 -224 -13 -12 3 -33 23 -47 45 -30 44 -31 50 -12 43 36 -14 180 46
251 104 56 45 47 53 -15 12 -74 -47 -145 -75 -218 -85 -45 -6 -57 -4 -75 13
-12 10 -39 30 -60 44 l-38 26 44 26 c55 32 128 112 157 172 12 25 20 47 18 49
-2 2 -23 -22 -47 -54 -45 -63 -89 -102 -163 -145 -42 -24 -53 -27 -103 -21
-30 4 -55 9 -55 11 0 2 15 32 34 66 37 68 66 156 65 197 0 21 -3 18 -13 -14
-18 -59 -82 -175 -117 -214 -25 -26 -44 -36 -97 -47 -37 -8 -68 -14 -68 -14
-1 0 7 28 18 63 10 34 21 91 24 127 l4 65 -18 -70 c-10 -39 -32 -100 -49 -136
-25 -55 -41 -73 -90 -107 -58 -41 -112 -98 -148 -157 -11 -19 10 -3 56 41 41
39 94 83 119 97 120 68 268 75 382 19 75 -37 153 -110 191 -180 l27 -50 -37
-6 c-21 -3 -96 -13 -168 -22 -71 -8 -179 -24 -239 -35 -61 -10 -112 -16 -115
-14 -2 3 6 16 18 29 19 21 20 24 6 30 -49 18 -122 -10 -173 -68 -26 -30 -53
-42 -184 -87 -181 -61 -236 -87 -271 -129 -37 -43 -57 -119 -57 -212 l0 -78
-328 0 -329 0 -11 82 c-20 138 -69 196 -217 257 -136 57 -436 116 -635 125
-101 5 -91 2 60 -15 211 -24 472 -83 580 -131 146 -65 176 -109 184 -269 5
-93 5 -93 -5 -24 -25 185 -39 211 -136 263 -148 79 -557 157 -898 172 l-160 7
135 3 135 3 -130 9 c-123 8 -371 3 -401 -9 -26 -10 -15 33 24 93 52 79 120
139 200 177 57 27 81 32 165 35 54 3 126 -1 160 -8 101 -19 267 -104 351 -179
l29 -26 -20 30 c-32 46 -85 93 -155 139 -57 37 -67 49 -104 122 -22 45 -48
117 -58 160 -25 109 -37 132 -30 59 8 -80 33 -190 54 -241 l18 -41 -57 13
c-31 8 -84 14 -118 14 -55 0 -64 3 -83 27 -40 51 -92 174 -110 261 -18 86 -18
87 -19 34 -2 -97 39 -250 82 -306 14 -19 11 -21 -55 -43 l-70 -24 -48 31 c-64
41 -149 132 -189 203 -18 32 -35 56 -38 54 -7 -8 34 -106 67 -156 29 -46 105
-124 143 -146 14 -9 8 -17 -45 -59 l-61 -48 -63 17 c-74 20 -163 70 -216 122
-21 20 -41 34 -45 30 -4 -4 20 -33 53 -65 59 -58 186 -132 226 -132 22 0 23 2
-17 -73 -32 -61 -43 -67 -125 -67 -67 1 -129 14 -183 40 -48 24 -58 20 -22 -8
22 -18 65 -36 135 -59 8 -3 -35 -15 -96 -28 -62 -13 -145 -33 -185 -45 -173
-51 -291 -90 -320 -107 -47 -28 -80 -107 -87 -208 l-5 -85 -122 0 c-83 0 -171
8 -271 25 -82 13 -189 29 -239 36 -98 13 -115 23 -115 73 0 34 40 93 225 337
189 248 366 417 865 825 276 226 883 669 913 666 11 0 193 -60 405 -131 585
-197 707 -225 992 -225 165 0 197 3 295 26 303 71 576 217 1025 546 l165 121
30 -18 c16 -10 71 -42 120 -71z m1056 -267 c13 -16 12 -17 -3 -4 -10 7 -18 15
-18 17 0 8 8 3 21 -13z m235 -250 c73 -99 138 -224 163 -314 31 -110 25 -138
-8 -39 -60 185 -150 338 -298 510 l-65 75 77 -80 c43 -44 101 -112 131 -152z
m-36 -316 c68 -149 103 -307 90 -402 l-7 -50 -2 43 c-2 78 -64 318 -118 458
-3 8 -2 14 2 14 3 0 19 -28 35 -63z m167 -349 c-3 -7 -5 -2 -5 12 0 14 2 19 5
13 2 -7 2 -19 0 -25z m-795 -429 c87 -18 125 -45 147 -103 24 -66 33 -140 22
-191 l-9 -40 -1 45 c-3 74 -27 180 -48 208 -36 50 -79 62 -249 73 -113 8 -204
7 -323 -1 -275 -19 -344 -21 -291 -10 125 27 653 40 752 19z m649 -132 c-69
-170 -133 -276 -224 -372 -92 -98 -140 -116 -58 -22 91 103 242 337 295 455
36 79 26 36 -13 -61z m-676 49 c23 -10 41 -27 52 -51 15 -32 16 -48 5 -163
-34 -346 -83 -591 -139 -695 -25 -44 -31 -49 -92 -67 -186 -56 -513 -111 -851
-144 -434 -43 -402 -42 -433 -15 -30 27 -100 191 -140 330 -14 46 -37 154 -52
239 -28 162 -28 235 -1 288 23 43 77 89 136 115 57 25 130 49 130 42 0 -3 -11
-37 -24 -77 -45 -139 -61 -322 -42 -480 l8 -68 62 0 c35 0 69 5 78 13 8 6 93
106 188 221 l172 209 -6 53 c-3 30 -16 83 -27 119 l-22 65 -29 -25 c-37 -31
-69 -32 -104 -1 -26 22 -27 24 -8 29 101 29 406 67 594 73 91 3 167 8 170 11
11 12 340 -7 375 -21z m425 -71 c17 -20 5 -32 -15 -15 -10 8 -31 11 -63 7
l-47 -6 35 14 c47 18 75 18 90 0z m-4130 -62 c-35 -40 -71 -113 -90 -183 -11
-39 -29 -180 -24 -180 1 0 64 68 139 150 103 113 143 150 161 150 21 0 23 4
18 29 -3 16 -1 38 6 50 11 21 16 22 93 16 153 -13 282 -34 422 -70 210 -54
283 -93 325 -175 45 -90 51 -183 32 -535 l-9 -180 -44 -109 c-39 -97 -48 -111
-73 -117 -67 -18 -511 -30 -726 -19 -243 11 -310 18 -600 61 -372 55 -470 83
-515 151 -71 107 -123 323 -132 543 -4 102 -2 164 6 193 12 42 16 46 94 82
165 78 409 138 647 160 69 6 134 13 145 14 11 2 51 4 89 5 l68 1 -32 -37z
m3933 -311 l-6 -178 27 -49 c39 -69 139 -216 144 -210 2 2 -20 39 -51 82 -56
80 -97 153 -97 174 0 6 13 -13 29 -43 15 -30 51 -88 78 -129 65 -97 69 -104
55 -95 -18 11 -15 3 20 -69 18 -36 35 -60 39 -54 9 14 47 -86 65 -171 16 -75
18 -127 5 -132 -5 -1 -13 -31 -18 -65 -8 -51 -7 -63 4 -63 16 0 16 0 -3 -68
-103 -354 -474 -758 -996 -1083 -230 -144 -512 -280 -573 -278 -5 0 4 6 20 14
42 19 33 18 -90 -10 -183 -41 -337 -51 -588 -35 -309 19 -404 6 -643 -86 -329
-127 -415 -158 -503 -182 -90 -25 -109 -26 -311 -26 -721 2 -1455 223 -1931
581 -101 76 -224 199 -278 276 -148 215 -172 522 -65 814 103 280 98 259 80
330 -8 35 -49 139 -90 231 -68 153 -155 397 -145 406 2 3 111 -12 242 -32 204
-31 237 -39 237 -53 0 -25 3 -26 120 -40 58 -7 108 -17 112 -23 4 -6 8 -26 8
-44 0 -71 42 -239 79 -318 35 -74 43 -84 97 -116 234 -141 837 -230 1454 -215
462 12 603 37 657 119 25 37 56 160 73 293 15 109 35 146 107 192 116 74 345
98 474 50 142 -53 194 -90 204 -141 15 -74 68 -218 95 -254 16 -22 45 -53 66
-68 l38 -29 175 0 c437 1 1110 109 1316 212 114 56 140 114 199 433 14 74 28
171 32 215 7 81 17 115 34 115 6 0 7 -67 3 -178z m-5973 8 c198 -23 312 -41
306 -47 -3 -3 -51 2 -108 11 -57 8 -166 22 -243 31 -77 9 -142 19 -144 21 -7
7 15 5 189 -16z m363 -57 c-7 -2 -19 -2 -25 0 -7 3 -2 5 12 5 14 0 19 -2 13
-5z m50 -10 c-7 -2 -19 -2 -25 0 -7 3 -2 5 12 5 14 0 19 -2 13 -5z m44 -9 c-3
-3 -12 -4 -19 -1 -8 3 -5 6 6 6 11 1 17 -2 13 -5z m3328 -4 c-93 -12 -227 -12
-220 0 4 6 61 9 143 9 112 -2 126 -3 77 -9z m-3911 -22 c-3 -13 -10 -30 -15
-38 -7 -13 -8 -13 -9 0 0 27 12 60 22 60 5 0 6 -10 2 -22z m994 -27 c4 -11 0
-12 -14 -6 -11 4 -37 11 -59 16 -38 7 -37 7 14 6 37 -1 56 -7 59 -16z m3077
-13 c18 -82 22 -108 15 -108 -4 0 -33 11 -63 25 -118 54 -268 67 -404 34 -57
-14 -190 -73 -215 -96 -17 -15 -18 -14 -18 33 0 27 3 66 6 86 l7 37 111 4 c61
1 211 4 333 5 l223 2 5 -22z m-131 -78 c36 -11 68 -24 71 -29 2 -5 -23 0 -58
11 -34 11 -105 23 -157 27 l-95 8 86 2 c62 1 105 -5 153 -19z m-251 3 c-7 -2
-19 -2 -25 0 -7 3 -2 5 12 5 14 0 19 -2 13 -5z m5085 -932 c-13 -15 -37 -38
-55 -50 -56 -40 -152 -139 -175 -183 -34 -65 -31 -183 7 -308 34 -109 40 -239
14 -298 -13 -32 -14 -26 -14 95 0 113 -3 140 -30 228 -61 206 -34 302 126 440
48 42 136 105 147 105 2 0 -7 -13 -20 -29z m-638 -216 c0 -2 -29 -36 -64 -76
-79 -87 -130 -181 -157 -291 -24 -96 -22 -169 11 -336 11 -56 20 -123 20 -147
0 -25 4 -45 8 -45 37 0 244 -24 312 -37 97 -17 347 -88 465 -132 371 -137 515
-249 540 -421 5 -35 -4 -85 -40 -229 -56 -225 -75 -270 -133 -322 -74 -65
-317 -176 -634 -290 l-108 -38 0 32 c0 18 -4 47 -10 66 -7 26 -6 41 7 65 19
36 43 121 43 153 0 13 -8 24 -20 28 -25 8 -117 -18 -165 -46 -34 -20 -37 -21
-78 -4 -91 37 -312 57 -387 36 -20 -6 -35 1 -75 32 -27 22 -70 49 -94 60 -43
19 -45 19 -58 1 -20 -28 -27 -82 -16 -140 8 -45 6 -60 -9 -94 -30 -64 -40
-140 -30 -229 l8 -81 -30 26 c-130 106 -226 164 -273 164 -39 0 -25 -16 32
-38 83 -32 285 -184 285 -214 0 -6 -8 -4 -17 4 -54 47 -247 92 -317 74 -46
-12 -17 -26 52 -26 37 0 85 -5 107 -11 62 -16 185 -73 185 -85 0 -6 19 -33 42
-59 41 -46 123 -95 161 -95 9 0 17 -4 17 -8 0 -13 -80 -62 -101 -62 -11 0 -54
34 -97 75 -80 76 -112 95 -161 95 -57 0 -70 -52 -18 -73 42 -18 59 -39 97
-115 34 -69 89 -117 146 -128 19 -3 34 -10 34 -15 0 -5 -14 -36 -31 -69 -17
-33 -29 -70 -27 -83 2 -12 -4 -27 -12 -34 -13 -10 -11 -13 11 -23 23 -11 28
-22 38 -84 26 -161 100 -246 214 -246 40 0 43 -3 74 -55 17 -30 29 -57 25 -59
-20 -12 -209 -17 -297 -7 -199 21 -361 81 -467 172 -42 35 -48 45 -48 79 0 41
19 140 26 140 3 0 15 -10 27 -21 30 -29 306 -164 315 -154 4 4 2 9 -4 12 -6 2
-46 25 -90 50 -103 61 -179 139 -248 256 -79 132 -120 235 -161 405 -30 126
-85 342 -103 407 -5 18 -6 18 -13 -5 -6 -20 -7 -17 -6 15 0 22 -5 72 -11 110
-6 39 -19 169 -27 290 -9 121 -21 237 -27 258 -14 45 -69 112 -111 133 -41 22
-101 20 -141 -5 -45 -28 -120 -110 -144 -158 -35 -67 -55 -195 -48 -290 9
-106 25 -160 78 -256 77 -142 159 -227 302 -312 37 -22 94 -59 127 -82 32 -24
59 -41 59 -40 0 2 -11 64 -25 138 -14 74 -24 143 -24 154 0 11 20 -74 44 -190
23 -115 46 -223 50 -240 7 -28 5 -27 -49 25 -71 69 -72 59 -3 -19 55 -61 69
-85 136 -234 40 -87 40 -88 13 -68 -15 10 -38 31 -51 45 -13 14 -28 23 -32 20
-5 -3 -9 3 -9 12 0 49 -106 146 -273 252 -178 113 -264 179 -358 274 -96 98
-145 169 -177 262 -21 61 -25 95 -30 231 -4 133 -2 171 13 220 46 160 182 336
309 402 111 58 260 84 339 60 l47 -15 0 32 c0 43 34 141 65 188 45 67 176 117
445 169 98 19 151 22 354 23 l238 1 -7 58 c-3 32 -16 99 -27 150 -27 117 -29
290 -4 357 24 64 139 231 196 284 46 43 60 53 60 41z m-310 -2391 c69 -19 131
-27 227 -31 l132 -6 -122 -60 c-67 -33 -133 -61 -147 -61 -18 -1 -26 -7 -28
-24 -4 -29 -38 -48 -58 -31 -21 17 -42 -4 -25 -24 9 -11 8 -17 -4 -27 -18 -15
-93 1 -141 31 -70 43 -80 181 -18 243 22 23 74 20 184 -10z m-395 -304 c0 -16
-6 -26 -18 -28 -19 -4 -32 20 -23 44 9 25 41 13 41 -16z m55 -46 c11 -12 10
-18 -3 -32 -16 -15 -18 -15 -34 0 -13 14 -14 20 -3 32 7 9 16 16 20 16 4 0 13
-7 20 -16z m60 -73 c0 -11 -4 -22 -8 -25 -14 -9 -35 12 -29 28 9 23 37 20 37
-3z m76 -60 c-11 -18 -36 -13 -36 7 0 10 3 22 7 26 10 10 37 -20 29 -33z
m-2800 -73 l29 -33 -32 29 c-31 28 -38 36 -30 36 2 0 16 -15 33 -32z m125
-125 c13 -16 12 -17 -3 -4 -10 7 -18 15 -18 17 0 8 8 3 21 -13z m2016 -150
c-2 -21 -4 -6 -4 32 0 39 2 55 4 38 2 -18 2 -50 0 -70z m-86 4 c-10 -9 -11 -8
-5 6 3 10 9 15 12 12 3 -3 0 -11 -7 -18z m-41 -87 c-6 -11 -13 -20 -16 -20 -2
0 0 9 6 20 6 11 13 20 16 20 2 0 0 -9 -6 -20z m-33 -72 c-3 -8 -6 -5 -6 6 -1
11 2 17 5 13 3 -3 4 -12 1 -19z m170 -80 c-2 -18 -4 -4 -4 32 0 36 2 50 4 33
2 -18 2 -48 0 -65z m-132 -164 c9 -15 12 -23 6 -20 -11 7 -35 46 -28 46 3 0
12 -12 22 -26z m98 1 c-3 -9 -8 -14 -10 -11 -3 3 -2 9 2 15 9 16 15 13 8 -4z
m-46 -31 c-3 -3 -12 -4 -19 -1 -8 3 -5 6 6 6 11 1 17 -2 13 -5z m-1222 -174
c10 -11 16 -20 13 -20 -3 0 -13 9 -23 20 -10 11 -16 20 -13 20 3 0 13 -9 23
-20z m905 -209 c19 -7 -4 -10 -90 -10 -107 1 -113 2 -85 15 33 16 131 13 175
-5z m33 -568 c-7 -2 -21 -2 -30 0 -10 3 -4 5 12 5 17 0 24 -2 18 -5z m-5891
-3980 c-123 -181 -199 -417 -209 -645 -5 -92 -9 -118 -21 -123 -8 -3 -17 -3
-20 0 -3 3 -1 5 5 5 7 0 14 42 18 108 15 247 81 458 201 645 24 37 48 67 54
67 6 0 -7 -26 -28 -57z m5427 -126 c-2 -1 -13 -9 -24 -17 -19 -14 -19 -14 -6
3 7 9 18 17 24 17 6 0 8 -1 6 -3z m-204 -27 c10 -11 16 -20 13 -20 -3 0 -13 9
-23 20 -10 11 -16 20 -13 20 3 0 13 -9 23 -20z m352 -82 c-3 -7 -5 -2 -5 12 0
14 2 19 5 13 2 -7 2 -19 0 -25z m-67 -142 c0 -2 -8 -10 -17 -17 -16 -13 -17
-12 -4 4 13 16 21 21 21 13z m-2391 -138 c-23 -128 -51 -224 -94 -314 -37 -77
-128 -173 -355 -374 -112 -99 -327 -267 -389 -303 -52 -30 -35 -12 27 28 133
88 366 283 562 472 78 74 107 110 139 171 47 92 85 218 102 337 7 47 15 85 19
85 4 0 -1 -46 -11 -102z m2351 89 c0 -1 -28 -29 -62 -62 l-63 -60 60 63 c55
58 65 67 65 59z m-6990 -41 c0 -2 -8 -10 -17 -17 -16 -13 -17 -12 -4 4 13 16
21 21 21 13z m8131 -23 c13 -16 12 -17 -3 -4 -10 7 -18 15 -18 17 0 8 8 3 21
-13z m-8171 -7 c0 -2 -8 -10 -17 -17 -16 -13 -17 -12 -4 4 13 16 21 21 21 13z
m8215 -26 c10 -11 16 -20 13 -20 -3 0 -13 9 -23 20 -10 11 -16 20 -13 20 3 0
13 -9 23 -20z m-8265 -13 c0 -2 -19 -21 -42 -42 l-43 -40 40 43 c36 39 45 47
45 39z m5387 -33 c-3 -3 -12 -4 -19 -1 -8 3 -5 6 6 6 11 1 17 -2 13 -5z m2984
-61 c13 -16 12 -17 -3 -4 -10 7 -18 15 -18 17 0 8 8 3 21 -13z m-1551 -3 c-8
-5 -22 -9 -30 -9 -10 0 -8 3 5 9 27 12 43 12 25 0z m-6910 -4 c0 -2 -8 -10
-17 -17 -16 -13 -17 -12 -4 4 13 16 21 21 21 13z m5947 -2 c-3 -3 -12 -4 -19
-1 -8 3 -5 6 6 6 11 1 17 -2 13 -5z m80 -10 c-3 -3 -12 -4 -19 -1 -8 3 -5 6 6
6 11 1 17 -2 13 -5z m820 0 c-3 -3 -12 -4 -19 -1 -8 3 -5 6 6 6 11 1 17 -2 13
-5z m-704 -11 c-7 -2 -19 -2 -25 0 -7 3 -2 5 12 5 14 0 19 -2 13 -5z m630 0
c-7 -2 -21 -2 -30 0 -10 3 -4 5 12 5 17 0 24 -2 18 -5z m-350 -10 c-13 -2 -33
-2 -45 0 -13 2 -3 4 22 4 25 0 35 -2 23 -4z m-4996 -109 c-3 -3 -12 -4 -19 -1
-8 3 -5 6 6 6 11 1 17 -2 13 -5z m-47 -14 c-8 -5 -19 -10 -25 -10 -5 0 -3 5 5
10 8 5 20 10 25 10 6 0 3 -5 -5 -10z m-1463 -22 c-3 -8 -6 -5 -6 6 -1 11 2 17
5 13 3 -3 4 -12 1 -19z m1423 9 c0 -2 -12 -14 -27 -28 l-28 -24 24 28 c23 25
31 32 31 24z m7207 -54 c-3 -10 -5 -4 -5 12 0 17 2 24 5 18 2 -7 2 -21 0 -30z
m-8630 -35 c-3 -8 -6 -5 -6 6 -1 11 2 17 5 13 3 -3 4 -12 1 -19z m1365 -37 c2
-22 0 -37 -4 -35 -8 5 -11 74 -4 74 2 0 6 -18 8 -39z m148 -147 c0 -2 -13 2
-30 11 -16 9 -30 18 -30 21 0 2 14 -2 30 -11 17 -9 30 -18 30 -21z m7050 32
c0 -2 -8 -10 -17 -17 -16 -13 -17 -12 -4 4 13 16 21 21 21 13z m-8425 -76 c27
-27 47 -50 44 -50 -3 0 -27 23 -54 50 -27 28 -47 50 -44 50 3 0 27 -22 54 -50z
m1415 30 c8 -5 11 -10 5 -10 -5 0 -17 5 -25 10 -8 5 -10 10 -5 10 6 0 17 -5
25 -10z m1346 -2 c4 -6 3 -8 -4 -4 -6 3 -13 2 -17 -4 -3 -5 -14 -10 -23 -10
-15 0 -5 9 35 29 1 1 5 -4 9 -11z m5614 -11 c0 -2 -10 -12 -22 -23 l-23 -19
19 23 c18 21 26 27 26 19z m-6860 -27 c8 -5 11 -10 5 -10 -5 0 -17 5 -25 10
-8 5 -10 10 -5 10 6 0 17 -5 25 -10z m1147 4 c-3 -3 -12 -4 -19 -1 -8 3 -5 6
6 6 11 1 17 -2 13 -5z m-110 -30 c-3 -3 -12 -4 -19 -1 -8 3 -5 6 6 6 11 1 17
-2 13 -5z m-50 -10 c-3 -3 -12 -4 -19 -1 -8 3 -5 6 6 6 11 1 17 -2 13 -5z
m5803 2 c0 -2 -8 -10 -17 -17 -16 -13 -17 -12 -4 4 13 16 21 21 21 13z m-6643
-12 c-3 -3 -12 -4 -19 -1 -8 3 -5 6 6 6 11 1 17 -2 13 -5z m800 0 c-3 -3 -12
-4 -19 -1 -8 3 -5 6 6 6 11 1 17 -2 13 -5z m-2376 -21 c13 -16 12 -17 -3 -4
-10 7 -18 15 -18 17 0 8 8 3 21 -13z m1616 11 c-3 -3 -12 -4 -19 -1 -8 3 -5 6
6 6 11 1 17 -2 13 -5z m716 -1 c-7 -2 -19 -2 -25 0 -7 3 -2 5 12 5 14 0 19 -2
13 -5z m344 1 c-3 -3 -12 -4 -19 -1 -8 3 -5 6 6 6 11 1 17 -2 13 -5z m-930
-30 c-3 -3 -12 -4 -19 -1 -8 3 -5 6 6 6 11 1 17 -2 13 -5z m843 3 c0 -2 -10
-12 -22 -23 l-23 -19 19 23 c18 21 26 27 26 19z m-737 -24 c-7 -2 -19 -2 -25
0 -7 3 -2 5 12 5 14 0 19 -2 13 -5z m210 0 c-7 -2 -21 -2 -30 0 -10 3 -4 5 12
5 17 0 24 -2 18 -5z m464 -120 c-3 -10 -5 -2 -5 17 0 19 2 27 5 18 2 -10 2
-26 0 -35z m-2258 1 c14 -12 -19 -1 -35 12 -18 14 -18 14 6 3 14 -6 27 -13 29
-15z m2331 -91 c0 -8 -38 17 -51 33 -9 11 -2 9 19 -6 17 -13 32 -25 32 -27z
m35 -21 c-3 -3 -11 0 -18 7 -9 10 -8 11 6 5 10 -3 15 -9 12 -12z m152 -48 c-3
-3 -12 -4 -19 -1 -8 3 -5 6 6 6 11 1 17 -2 13 -5z m1013 -9 c0 -6 -76 -45 -87
-45 -4 1 12 12 37 25 50 27 50 27 50 20z m-923 -11 c-3 -3 -12 -4 -19 -1 -8 3
-5 6 6 6 11 1 17 -2 13 -5z m350 -80 c-3 -3 -12 -4 -19 -1 -8 3 -5 6 6 6 11 1
17 -2 13 -5z m211 -11 c-21 -2 -57 -2 -80 0 -24 2 -7 4 37 4 44 0 63 -2 43 -4z
m-1731 -139 c-3 -3 -12 -4 -19 -1 -8 3 -5 6 6 6 11 1 17 -2 13 -5z m60 -10
c-3 -3 -12 -4 -19 -1 -8 3 -5 6 6 6 11 1 17 -2 13 -5z m130 -20 c-3 -3 -12 -4
-19 -1 -8 3 -5 6 6 6 11 1 17 -2 13 -5z m4410 0 c-3 -3 -12 -4 -19 -1 -8 3 -5
6 6 6 11 1 17 -2 13 -5z m-70 -10 c-3 -3 -12 -4 -19 -1 -8 3 -5 6 6 6 11 1 17
-2 13 -5z m-4210 -10 c-3 -3 -12 -4 -19 -1 -8 3 -5 6 6 6 11 1 17 -2 13 -5z
m4140 0 c-3 -3 -12 -4 -19 -1 -8 3 -5 6 6 6 11 1 17 -2 13 -5z m-4060 -10 c-3
-3 -12 -4 -19 -1 -8 3 -5 6 6 6 11 1 17 -2 13 -5z m3990 0 c-3 -3 -12 -4 -19
-1 -8 3 -5 6 6 6 11 1 17 -2 13 -5z m-3920 -10 c-3 -3 -12 -4 -19 -1 -8 3 -5
6 6 6 11 1 17 -2 13 -5z m3840 0 c-3 -3 -12 -4 -19 -1 -8 3 -5 6 6 6 11 1 17
-2 13 -5z m-3760 -10 c-3 -3 -12 -4 -19 -1 -8 3 -5 6 6 6 11 1 17 -2 13 -5z
m3680 0 c-3 -3 -12 -4 -19 -1 -8 3 -5 6 6 6 11 1 17 -2 13 -5z m-3590 -10 c-3
-3 -12 -4 -19 -1 -8 3 -5 6 6 6 11 1 17 -2 13 -5z m3506 -1 c-7 -2 -19 -2 -25
0 -7 3 -2 5 12 5 14 0 19 -2 13 -5z m-3416 -9 c-3 -3 -12 -4 -19 -1 -8 3 -5 6
6 6 11 1 17 -2 13 -5z m3326 -1 c-7 -2 -19 -2 -25 0 -7 3 -2 5 12 5 14 0 19
-2 13 -5z m-3230 -10 c-7 -2 -19 -2 -25 0 -7 3 -2 5 12 5 14 0 19 -2 13 -5z
m3134 1 c-3 -3 -12 -4 -19 -1 -8 3 -5 6 6 6 11 1 17 -2 13 -5z m-3024 -11 c-7
-2 -21 -2 -30 0 -10 3 -4 5 12 5 17 0 24 -2 18 -5z m2920 0 c-7 -2 -19 -2 -25
0 -7 3 -2 5 12 5 14 0 19 -2 13 -5z m-2810 -10 c-7 -2 -19 -2 -25 0 -7 3 -2 5
12 5 14 0 19 -2 13 -5z m2700 0 c-7 -2 -19 -2 -25 0 -7 3 -2 5 12 5 14 0 19
-2 13 -5z m-2570 -10 c-7 -2 -21 -2 -30 0 -10 3 -4 5 12 5 17 0 24 -2 18 -5z
m2450 0 c-7 -2 -21 -2 -30 0 -10 3 -4 5 12 5 17 0 24 -2 18 -5z m-2315 -10
c-10 -2 -26 -2 -35 0 -10 3 -2 5 17 5 19 0 27 -2 18 -5z m2175 0 c-7 -2 -21
-2 -30 0 -10 3 -4 5 12 5 17 0 24 -2 18 -5z m-2005 -10 c-10 -2 -28 -2 -40 0
-13 2 -5 4 17 4 22 1 32 -1 23 -4z m1840 0 c-10 -2 -26 -2 -35 0 -10 3 -2 5
17 5 19 0 27 -2 18 -5z m-1635 -10 c-13 -2 -35 -2 -50 0 -16 2 -5 4 22 4 28 0
40 -2 28 -4z m1440 0 c-13 -2 -33 -2 -45 0 -13 2 -3 4 22 4 25 0 35 -2 23 -4z
m-1146 -10 c-20 -2 -52 -2 -70 0 -17 2 0 4 38 4 39 0 53 -2 32 -4z m871 0
c-21 -2 -55 -2 -75 0 -21 2 -4 4 37 4 41 0 58 -2 38 -4z"/>
<path d="M11993 13643 c9 -2 23 -2 30 0 6 3 -1 5 -18 5 -16 0 -22 -2 -12 -5z"/>
<path d="M11272 12901 c-7 -4 24 -6 70 -4 116 6 128 11 28 12 -47 0 -91 -3
-98 -8z"/>
<path d="M11047 12893 c-20 -20 1 -104 41 -166 21 -32 77 -77 95 -77 13 0 49
119 56 183 l7 67 -96 0 c-53 0 -100 -3 -103 -7z"/>
<path d="M9110 13528 c0 -15 -3 -33 -6 -42 -5 -13 2 -16 35 -16 23 0 41 4 41
8 0 4 -16 23 -35 42 l-35 34 0 -26z"/>
<path d="M9089 13058 c-101 -122 -185 -225 -187 -230 -2 -4 55 -8 126 -8 l130
0 30 38 c16 20 55 77 87 125 l59 88 -22 97 c-12 53 -26 100 -30 104 -4 4 -91
-92 -193 -214z"/>
<path d="M8772 12793 c48 -2 129 -2 180 0 51 1 12 3 -87 3 -99 0 -141 -2 -93
-3z"/>
<path d="M8985 12780 c-176 -3 -255 -7 -200 -10 l90 -5 -3 -117 -3 -116 57
-28 c46 -22 57 -25 64 -13 10 16 39 174 42 234 l3 40 58 1 57 1 0 -76 c0 -42
-7 -103 -14 -136 -8 -33 -13 -61 -12 -62 2 -2 22 11 45 27 47 35 92 99 120
175 28 76 29 90 6 90 -11 1 -150 -2 -310 -5z"/>
<path d="M12912 12635 c0 -5 6 -26 13 -45 7 -19 14 -28 14 -20 0 8 -6 29 -14
45 -7 17 -13 26 -13 20z"/>
<path d="M12941 12534 c0 -11 3 -14 6 -6 3 7 2 16 -1 19 -3 4 -6 -2 -5 -13z"/>
<path d="M12952 12490 c0 -14 2 -19 5 -12 2 6 2 18 0 25 -3 6 -5 1 -5 -13z"/>
<path d="M10333 12463 c-58 -17 -129 -72 -144 -111 -14 -36 11 -69 63 -83 25
-6 87 -9 144 -7 93 3 108 7 169 38 38 19 74 45 82 57 13 19 11 24 -17 56 -55
64 -180 85 -297 50z"/>
<path d="M12963 12425 c0 -22 2 -30 4 -17 2 12 2 30 0 40 -3 9 -5 -1 -4 -23z"/>
<path d="M11160 11960 c19 -12 21 -10 -86 -63 -293 -147 -580 -236 -874 -273
-157 -19 -429 -15 -520 9 -60 16 -190 66 -190 74 0 3 10 13 23 24 l22 19 -35
-7 c-19 -3 -66 -19 -105 -35 -53 -22 -61 -27 -34 -23 28 4 52 -2 108 -29 114
-54 226 -71 481 -71 159 0 244 5 325 19 314 51 538 122 842 266 134 63 155 70
214 71 l64 1 -85 14 c-102 16 -172 18 -150 4z"/>
<path d="M14015 10644 c-157 -18 -233 -28 -249 -34 -17 -6 -16 -8 10 -27 165
-116 552 -220 929 -248 208 -16 457 -19 488 -6 24 9 -176 110 -333 169 -108
41 -323 103 -420 121 -128 24 -325 36 -425 25z"/>
<path d="M14341 9391 c-15 -28 -14 -68 3 -74 22 -9 38 17 34 54 -4 38 -22 48
-37 20z"/>
</g>
</svg>
